<?xml version="1.0" encoding="UTF-8"?>
<!-- Generated by Pixelmator Pro 3.7.1 -->
<svg width="1024" height="252" viewBox="0 0 1024 252" xmlns="http://www.w3.org/2000/svg">
    <path id="Path" fill="#111111" stroke="none" d="M 354.239441 173.185516 C 344.620941 173.543182 335.161591 170.654007 327.381531 164.982285 C 320.294006 159.668732 315.750183 151.630341 314.850098 142.813232 L 330.463593 142.813232 C 331.475464 147.651154 334.132813 151.987976 337.982452 155.084183 C 342.652588 158.741333 348.487274 160.583542 354.408783 160.270508 C 359.482178 160.697052 364.534637 159.23674 368.599792 156.1689 C 371.477661 153.758911 373.139832 150.195862 373.138184 146.440277 C 373.702637 141.898407 371.339844 137.49498 367.245026 135.457443 C 361.900085 133.209808 356.322906 131.561371 350.615479 130.542282 C 345.671875 129.530457 340.814056 128.136475 336.085785 126.372879 C 331.515472 124.720482 327.36438 122.081894 323.92691 118.644226 C 320.571045 115.133926 318.775452 110.414963 318.948212 105.559723 C 318.747406 98.094635 321.996216 90.95369 327.754089 86.204163 C 334.488037 80.906601 342.90744 78.222122 351.462189 78.644989 C 359.885895 78.29422 368.177216 80.829178 374.967102 85.831299 C 381.193268 90.82782 385.049042 98.201797 385.601898 106.169891 L 370.767395 106.169891 C 370.342102 101.916977 368.216614 98.016922 364.874207 95.356537 C 360.992584 92.588287 356.289978 91.214523 351.529938 91.458313 C 347.06076 91.163986 342.619598 92.355667 338.896912 94.848068 C 336.016571 96.96283 334.358002 100.35881 334.460114 103.932648 C 334.510376 107.662979 336.75473 111.012421 340.183899 112.474854 C 345.093201 114.928177 350.310944 116.706924 355.695801 117.762878 C 361.079468 118.903915 366.38504 120.387115 371.580231 122.203461 C 376.279083 123.761765 380.523956 126.450539 383.942322 130.033829 C 387.414246 134.221405 389.137115 139.588715 388.751678 145.016571 C 389.017792 152.77858 385.617401 160.213104 379.573242 165.083984 C 372.383728 170.758698 363.384613 173.636551 354.239441 173.185516 Z"/>
    <path id="path1" fill="#111111" stroke="none" d="M 449.30899 173.185516 C 441.205994 173.32196 433.215698 171.272919 426.176636 167.253433 C 419.345886 163.356506 413.738739 157.627167 409.987366 150.71138 C 405.925903 143.084351 403.89624 134.538666 404.094208 125.898308 C 403.900574 117.269196 405.930115 108.735535 409.987366 101.119141 C 413.743805 94.215851 419.350494 88.498703 426.176636 84.610992 C 433.215698 80.591507 441.205994 78.54245 449.30899 78.678894 C 459.022003 78.358841 468.561859 81.306793 476.403992 87.051605 C 483.652802 92.520035 488.604034 100.49707 490.290131 109.424057 L 474.744385 109.424057 C 473.671692 104.051529 470.454376 99.350021 465.836914 96.407364 C 460.90686 93.259354 455.15567 91.643402 449.30899 91.763397 C 438.651154 91.6371 428.834259 97.540146 423.941284 107.017334 C 420.963348 112.852371 419.518066 119.349945 419.741577 125.898308 C 419.513763 132.457916 420.959106 138.967514 423.941284 144.813187 C 426.428558 149.597565 430.191711 153.598633 434.813141 156.372284 C 439.162598 158.940582 444.123566 160.287292 449.173492 160.270508 C 454.991486 160.434387 460.728638 158.878021 465.667603 155.796021 C 470.422882 152.807068 473.713684 147.964996 474.744385 142.440369 L 490.35788 142.440369 C 488.680664 151.307602 483.751953 159.226959 476.539429 164.643311 C 468.699524 170.511536 459.092926 173.525146 449.30899 173.185516 Z"/>
    <path id="path2" fill="#111111" stroke="none" d="M 549.492737 173.185516 C 541.463196 173.334961 533.545837 171.283585 526.597412 167.253433 C 519.956665 163.324127 514.529846 157.634644 510.916168 150.81308 C 506.946564 143.122772 504.988953 134.55101 505.226257 125.898308 C 505.02832 117.300766 506.959808 108.787872 510.84848 101.119141 C 514.398071 94.23407 519.838501 88.50676 526.529663 84.610992 C 533.625671 80.549545 541.69281 78.498825 549.865234 78.678894 C 557.805847 78.465637 565.642517 80.523499 572.455688 84.610992 C 578.648743 88.362946 583.706177 93.729324 587.086975 100.136093 C 590.46106 106.514984 592.206238 113.630066 592.167297 120.847565 C 592.167297 122.203461 592.167297 123.525467 592.167297 124.847481 C 592.167297 126.169487 592.167297 127.694885 592.167297 129.389771 L 520.263977 129.389771 C 520.364624 135.436951 522.021057 141.356064 525.073303 146.575867 C 530.265198 155.078079 539.537231 160.22641 549.492737 160.134918 C 555.074707 160.351593 560.58728 158.836121 565.275513 155.796021 C 569.510254 152.915756 572.751648 148.795471 574.555542 143.999649 L 589.627136 143.999649 C 584.723755 161.917969 568.031799 174.01413 549.492737 173.083817 Z M 549.492737 91.559998 C 542.457825 91.51857 535.625183 93.913834 530.153625 98.339523 C 524.330994 103.130508 520.800903 110.159897 520.43335 117.695084 L 577.095703 117.695084 C 577.117188 110.438324 574.079773 103.509018 568.730103 98.610703 C 563.440857 93.907578 556.565796 91.387817 549.492737 91.559998 Z"/>
    <path id="path3" fill="#111111" stroke="none" d="M 611.675659 170.982178 L 611.675659 80.848343 L 625.460266 80.848343 L 626.374756 97.017517 C 629.171631 91.392319 633.520386 86.686966 638.906128 83.458466 C 644.513672 80.149185 650.923279 78.448685 657.432373 78.543304 C 666.925354 78.094986 676.176819 81.619446 682.96936 88.271927 C 689.314087 94.757675 692.48645 104.723582 692.48645 118.169647 L 692.48645 170.982178 L 677.245544 170.982178 L 677.245544 119.932327 C 677.245544 101.107834 669.489604 91.706889 653.977722 91.729492 C 646.599121 91.566635 639.523926 94.667023 634.638733 100.203903 C 629.490621 105.830907 626.916565 113.853348 626.916565 124.271225 L 626.916565 170.982178 Z"/>
    <path id="path4" fill="#111111" stroke="none" d="M 755.4823 173.185516 C 747.278259 173.334457 739.195801 171.185913 732.14679 166.982239 C 725.455322 162.91217 720.044312 157.038376 716.533264 150.033417 C 712.743286 142.477142 710.837463 134.114807 710.978821 125.661026 C 710.810669 117.302979 712.682434 109.030045 716.431702 101.559799 C 720.004639 94.565399 725.444275 88.69873 732.14679 84.610992 C 739.321472 80.392242 747.536865 78.277893 755.854858 78.509415 C 762.666016 78.3797 769.403198 79.940247 775.464844 83.051697 C 781.000366 85.953262 785.594238 90.37468 788.70752 95.797211 L 789.452637 80.712753 L 803.982361 80.712753 L 803.982361 170.982178 L 789.622009 170.982178 L 788.70752 156.101105 C 785.384766 160.853348 781.118835 164.869034 776.176147 167.897491 C 769.94165 171.643677 762.748047 173.481903 755.4823 173.185516 Z M 757.108032 159.897644 C 762.74762 160.057251 768.319641 158.636627 773.195679 155.796021 C 777.876465 152.935333 781.656433 148.811493 784.101379 143.897964 C 786.808594 138.352829 788.144409 132.237701 787.996338 126.067795 C 788.140259 119.90918 786.804504 113.806 784.101379 108.27153 C 781.656433 103.357986 777.876465 99.234146 773.195679 96.373459 C 768.337036 93.473602 762.763916 91.994003 757.108032 92.102356 C 751.518433 92.012177 746.015442 93.491837 741.223572 96.373459 C 736.552917 99.236206 732.784424 103.360367 730.351746 108.27153 C 727.636902 113.80307 726.28949 119.906387 726.422974 126.067795 C 726.2854 132.240479 727.632874 138.355743 730.351746 143.897964 C 732.784424 148.809128 736.552917 152.933273 741.223572 155.796021 C 746.032898 158.618347 751.534729 160.039001 757.108032 159.897644 Z"/>
    <path id="path5" fill="#111111" stroke="none" d="M 827.554993 170.982178 L 827.554993 80.848343 L 841.3396 80.848343 L 842.626587 98.102249 C 845.361389 92.222336 849.782654 87.289932 855.327332 83.933029 C 861.714905 80.227585 869.015015 78.395126 876.393677 78.644989 L 876.393677 94.780273 L 872.227783 94.780273 C 867.190002 94.730957 862.192993 95.687439 857.528809 97.593781 C 853.003174 99.521408 849.232361 102.878723 846.79248 107.152908 C 843.849731 112.87265 842.470886 119.269653 842.795898 125.694923 L 842.795898 171.117767 Z"/>
    <path id="path6" fill="#111111" stroke="none" d="M 902.20166 60.882645 C 899.377075 60.988342 896.636047 59.911636 894.63739 57.911224 C 892.638672 55.910797 891.562866 53.167511 891.668518 50.340469 C 891.608582 47.595734 892.702148 44.951752 894.6828 43.052475 C 896.69873 41.117142 899.40979 40.078217 902.20166 40.171188 C 904.967651 40.111557 907.645386 41.147018 909.652832 43.052475 C 911.680115 44.924744 912.803223 47.580444 912.734863 50.340469 C 912.798035 53.168762 911.681213 55.895584 909.652832 57.865753 C 907.677917 59.836899 904.990479 60.925018 902.20166 60.882645 Z M 894.716675 170.982178 L 894.716675 80.848343 L 909.957642 80.848343 L 909.957642 170.982178 Z"/>
    <path id="path7" fill="#111111" stroke="none" d="M 974.816223 173.185516 C 966.804016 173.299042 958.904602 171.28743 951.921021 167.355118 C 945.132629 163.48233 939.560608 157.788116 935.833374 150.914764 C 931.760803 143.218658 929.731567 134.604645 929.940186 125.898308 C 929.730042 117.190338 931.796509 108.578461 935.934998 100.915741 C 939.773315 94.068985 945.436768 88.424164 952.293518 84.610992 C 966.592346 76.83493 983.852905 76.83493 998.151855 84.610992 C 1004.929932 88.485886 1010.490417 94.180359 1014.205566 101.051331 C 1018.247742 108.695282 1020.254028 117.25264 1020.031006 125.898308 C 1020.245483 134.617538 1018.178894 143.241455 1014.036255 150.914764 C 1010.245605 157.797836 1004.616821 163.490067 997.779236 167.355118 C 990.766113 171.275024 982.848267 173.285385 974.816223 173.185516 Z M 974.816223 160.101028 C 979.910828 160.117966 984.920715 158.797211 989.345947 156.270599 C 993.977234 153.554474 997.746338 149.582367 1000.217773 144.813187 C 1003.18457 138.961975 1004.629028 132.456421 1004.417542 125.898308 C 1004.621887 119.363266 1003.214355 112.878494 1000.319397 107.017334 C 997.903381 102.242126 994.164246 98.264435 989.549133 95.559921 C 985.181702 93.042755 980.228638 91.721603 975.188843 91.729492 C 970.094238 91.71254 965.084351 93.03331 960.659119 95.559921 C 956.027832 98.276047 952.258728 102.248138 949.787292 107.017334 C 946.785828 112.846176 945.3172 119.34407 945.519775 125.898308 C 945.291992 132.457916 946.737366 138.967514 949.719482 144.813187 C 952.175598 149.571167 955.919617 153.541565 960.523621 156.270599 C 964.859314 158.804977 969.795349 160.127838 974.816223 160.101028 Z"/>
    <path id="path8" fill="#111111" stroke="none" opacity="0.85" d="M 122.61116 108.169846 L 241.253326 178.100677 L 122.61116 248.031494 L 3.968992 178.100677 Z"/>
    <path id="path9" fill="#111111" stroke="none" opacity="0.55" d="M 122.61116 73.187469 L 241.253326 143.118301 L 122.61116 213.049133 L 3.968992 143.118301 Z"/>
    <path id="path10" fill="#111111" stroke="none" opacity="0.35" d="M 122.61116 38.239014 L 241.253326 108.169846 L 122.61116 178.100677 L 3.968992 108.169846 Z"/>
    <path id="path11" fill="#111111" stroke="none" opacity="0.15" d="M 122.61116 3.256653 L 241.253326 73.187469 L 122.61116 143.118301 L 3.968992 73.187469 Z"/>
</svg>
