<?xml version="1.0" standalone="no"?>
<!DOCTYPE svg PUBLIC "-//W3C//DTD SVG 20010904//EN"
 "http://www.w3.org/TR/2001/REC-SVG-20010904/DTD/svg10.dtd">
<svg version="1.0" xmlns="http://www.w3.org/2000/svg"
 width="1251.000000pt" height="317.000000pt" viewBox="0 0 1251.000000 317.000000"
 preserveAspectRatio="xMidYMid meet">
<metadata>
Created by potrace 1.16, written by Peter Selinger 2001-2019
</metadata>
<g transform="translate(0.000000,317.000000) scale(0.100000,-0.100000)"
fill="#000000" stroke="none">
<path d="M4630 2999 c-210 -23 -387 -73 -569 -160 -459 -219 -705 -594 -740
-1127 -15 -243 15 -482 86 -672 46 -124 68 -167 145 -281 117 -175 280 -313
482 -410 196 -94 390 -128 771 -136 346 -7 558 12 860 78 136 30 184 48 226
86 72 65 72 72 77 636 l3 497 -185 0 -186 0 -2 -506 -3 -506 -105 -43 c-128
-53 -215 -71 -404 -87 -290 -24 -589 23 -791 124 -397 199 -583 590 -561 1183
12 355 71 544 228 742 176 221 333 332 554 389 84 22 129 27 289 31 435 13
698 -68 954 -291 65 -56 90 -66 109 -43 16 19 62 167 69 218 7 60 -5 81 -69
117 -108 61 -306 115 -538 147 -137 19 -576 28 -700 14z"/>
<path d="M1365 2994 c-16 -2 -65 -9 -107 -15 -219 -29 -601 -224 -781 -398
-158 -152 -294 -432 -354 -726 -27 -134 -24 -402 5 -550 112 -566 499 -948
1086 -1071 151 -32 432 -43 607 -25 657 68 1134 432 1294 986 41 143 57 265
57 435 1 324 -56 555 -182 740 -120 177 -362 386 -559 484 -186 93 -423 135
-801 141 -129 2 -248 1 -265 -1z m462 -135 c198 -26 361 -93 509 -207 237
-183 367 -395 420 -688 27 -148 25 -449 -4 -604 -52 -281 -163 -499 -353 -695
-290 -300 -683 -410 -1065 -299 -330 95 -545 274 -698 582 -98 196 -121 328
-113 657 6 241 19 335 68 483 54 164 206 411 312 507 226 205 590 309 924 264z"/>
<path d="M12250 2965 c-83 -7 -147 -18 -165 -28 -68 -35 -126 -117 -335 -477
-233 -401 -411 -681 -461 -726 l-21 -19 -40 45 c-84 94 -248 356 -573 917
l-170 293 -225 -3 -224 -2 -137 -360 c-158 -418 -358 -917 -506 -1265 -119
-279 -303 -664 -313 -653 -27 30 -689 1645 -836 2038 -35 94 -72 181 -82 195
-30 40 -73 49 -249 49 -90 1 -163 -1 -163 -5 0 -37 1104 -2445 1178 -2568 57
-94 91 -126 137 -126 75 0 125 85 313 535 235 558 576 1336 710 1618 106 221
125 256 134 251 18 -11 140 -202 474 -742 l344 -555 0 -558 0 -559 185 0 185
0 0 635 0 636 262 407 c420 653 542 832 656 960 36 40 63 74 61 75 -2 2 -65
-2 -139 -8z"/>
<path d="M6240 1615 l0 -1355 185 0 185 0 0 1355 0 1355 -185 0 -185 0 0
-1355z"/>
<path d="M6920 1615 l0 -1355 760 0 760 0 0 83 c0 89 -3 98 -38 116 -29 15
-354 16 -732 1 -140 -5 -281 -10 -312 -10 l-58 0 0 1260 0 1260 -190 0 -190 0
0 -1355z"/>
</g>
</svg>
