<?xml version="1.0" encoding="UTF-8"?>
<svg class="within-logo" viewBox="0 0 1311 248" fill="none" xmlns="http://www.w3.org/2000/svg">
	<path d="M914.576 7.0405C917.108 6.21246 920.074 5.79844 923.03 5.79844H932.75C934.015 5.79844 934.865 4.97039 934.865 3.72832C934.865 2.48625 934.015 1.6582 932.75 1.6582H889.217V121.725H734.11V1.6582H690.578C689.31 1.6582 688.465 2.48625 688.465 3.72832C688.465 4.97039 689.31 5.79844 690.578 5.79844H700.298C703.257 5.79844 706.216 6.21246 708.751 7.0405C715.091 9.1106 723.121 14.0789 723.121 26.4996V220.677C723.121 233.097 715.091 238.065 708.751 240.136C706.216 240.964 703.257 241.378 700.298 241.378H690.578C689.31 241.378 688.465 242.206 688.465 243.448C688.465 244.69 689.31 245.517 690.578 245.517H734.11V128.349H889.217V245.932H932.75C934.015 245.932 934.865 245.104 934.865 243.862C934.865 242.619 934.015 241.791 932.75 241.791H923.03C920.074 241.791 917.108 241.378 914.576 240.549C907.813 238.48 900.205 233.512 900.205 221.09V26.9136C900.205 14.0789 908.238 9.1106 914.576 7.0405Z" fill="#101212"/>
	<path d="M1036.72 2.06641H993.194V221.085C993.194 233.505 985.165 238.474 978.818 240.544C976.286 241.372 973.33 241.786 970.364 241.786H960.645C959.379 241.786 958.538 242.614 958.538 243.856C958.538 245.098 959.379 245.927 960.645 245.927H1004.18V26.9078C1004.18 14.4871 1012.21 9.51882 1018.55 7.44871C1021.09 6.62067 1024.04 6.20664 1027 6.20664H1036.72C1037.99 6.20664 1038.83 5.3786 1038.83 4.13652C1038.83 2.89446 1037.99 2.06641 1036.72 2.06641Z" fill="#101212"/>
	<path d="M477.572 241.786H467.851C464.893 241.786 461.934 241.372 459.398 240.544C453.059 238.474 445.029 233.505 445.029 221.085V2.06641H401.075C399.807 2.06641 398.962 2.89446 398.962 4.13652C398.962 5.3786 399.807 6.20664 401.075 6.20664H410.795C413.754 6.20664 416.712 6.62067 419.248 7.44871C425.588 9.51882 433.618 14.4871 433.618 26.9078V245.927H477.149C478.418 245.927 479.262 245.098 479.262 243.856C479.685 242.614 478.418 241.786 477.572 241.786Z" fill="#101212"/>
	<path d="M371.489 2.07012H327.958L261.182 204.114C260.759 205.77 259.491 206.184 258.222 206.184C256.955 206.184 255.687 205.77 255.264 204.114L188.065 0L120.867 204.114C120.444 205.77 119.176 206.184 117.907 206.184C116.64 206.184 115.372 205.77 114.949 204.114L48.173 2.07012H4.64151C3.37361 2.07012 2.52834 2.89816 2.52834 4.14024C2.52834 5.3823 3.37361 6.21035 4.64151 6.21035H14.7848C22.3922 6.21035 40.1429 11.1786 45.2146 26.9115L117.907 248L188.065 34.3639L258.222 248L331.339 26.9115C336.41 11.1786 353.738 6.21035 361.769 6.21035H371.911C373.18 6.21035 374.025 5.3823 374.025 4.14024C374.025 2.89816 372.757 2.07012 371.489 2.07012Z" fill="#101212"/>
	<path d="M468.278 29.3919C468.278 30.634 469.123 31.462 470.392 31.462C471.659 31.462 472.505 30.634 472.505 29.3919C472.505 16.9712 480.534 11.5889 486.874 9.51882C489.41 8.69079 491.945 8.27676 494.904 8.27676H551.115C556.609 8.27676 560.835 12.417 560.835 17.7993V221.085C560.835 233.505 552.806 238.474 546.466 240.544C543.93 241.372 540.971 241.786 538.013 241.786H528.293C527.024 241.786 526.179 242.614 526.179 243.856C526.179 245.098 527.024 245.927 528.293 245.927H604.367C605.634 245.927 606.48 245.098 606.48 243.856C606.48 242.614 605.634 241.786 604.367 241.786H594.646C591.688 241.786 588.729 241.372 586.194 240.544C579.854 238.474 571.824 233.505 571.824 221.085V17.7993C571.824 12.417 576.05 8.27676 581.544 8.27676H637.755C640.713 8.27676 643.671 8.69079 645.785 9.51882C652.547 11.5889 660.155 16.5572 660.155 29.3919C660.155 30.634 661 31.462 662.268 31.462C663.535 31.462 664.381 30.634 664.381 29.3919V2.06641H467.855V29.3919H468.278Z" fill="#101212"/>
	<path d="M1306.78 2.06641H1263.25V206.594C1263.25 208.25 1262.41 209.078 1261.13 209.492C1260.29 209.906 1258.6 209.492 1257.75 208.25L1108.15 2.48043L1107.72 2.06641H1064.19C1062.92 2.06641 1062.08 2.89446 1062.08 4.13652C1062.08 5.3786 1062.92 6.20664 1064.19 6.20664H1073.91C1076.87 6.20664 1079.4 6.62067 1081.94 7.44871C1088.71 9.51882 1096.74 14.4872 1096.74 26.9078V221.085C1096.74 233.92 1088.71 238.888 1081.94 240.544C1079.4 241.372 1076.87 241.786 1073.91 241.786H1064.19C1062.92 241.786 1062.08 242.614 1062.08 243.856C1062.08 245.098 1062.92 245.927 1064.19 245.927H1107.72V24.8377C1107.72 23.5957 1108.57 22.7676 1109.84 22.7676C1110.26 22.7676 1111.1 23.1816 1111.53 23.5957L1273.82 247.997V26.9078C1273.82 14.0731 1281.85 9.10484 1288.61 7.44871C1291.14 6.62067 1293.68 6.20664 1296.64 6.20664H1306.36C1307.63 6.20664 1308.48 5.3786 1308.48 4.13652C1308.48 2.89446 1307.63 2.06641 1306.78 2.06641Z" fill="#101212"/>
</svg>